<svg version="1.0" xmlns="http://www.w3.org/2000/svg" width="100" height="100" fill="none">
    <path
        d="M42.3 98c-4-2.4-5.3-4.8-5.3-9.7 0-4.3 4.3-14.2 9.2-20.9 2.9-4.1 3.3-4.3 4.9-2.8 1 .9 3.6 5.2 5.9 9.5 4.5 8.6 6 16.1 4.1 19.8-1.8 3.3-7.1 6.1-11.6 6.1-2.2 0-5.4-.9-7.2-2zm26.9-10.5c-3.7-3.1-7.6-12-9.2-20.8-.7-3.7-1.1-7-.8-7.2.2-.2 3.3.2 7 1 14.4 3 22.8 9 22.8 16.2 0 10.2-12.4 17-19.8 10.8zM16.5 87c-3.7-2.4-6.5-7.4-6.5-11.7 0-4.4 3.8-8.5 10.7-11.5 5.4-2.4 18.9-5.5 19.8-4.6.8.7-2.3 13.6-4.6 18.7-4.3 10-12.3 13.8-19.4 9.1zm59.9-28c-4.4-2.2-9.2-5.1-10.8-6.4l-2.8-2.3 3.3-2.6C75.7 40.5 89 36.3 93.9 39c5.4 2.8 7.7 12 4.6 18-3.8 7.3-10.5 7.9-22.1 2zM5.2 60.5c-6.8-5-6.8-17.1 0-21.9 5-3.5 16.3-.4 27.4 7.6 4.1 2.9 4.3 3.3 2.8 4.9-.9 1-5.2 3.6-9.6 5.9-9.3 4.9-16.9 6.2-20.6 3.5zm40.4-6.1c-2-2-2-6.8 0-8.8.8-.9 2.8-1.6 4.4-1.6 3.6 0 6 2.4 6 6s-2.4 6-6 6c-1.6 0-3.6-.7-4.4-1.6zM33.4 39.5c-14-3-22.4-9.1-22.4-16.2 0-9.8 12.2-16.9 19.4-11.2 3.7 2.9 7.3 10.5 9.1 19 1.7 7.9 1.8 9.9.8 9.8-.5 0-3.5-.7-6.9-1.4zm26.2-1.7c3-17 9.2-26.8 17.1-26.8 9.9 0 16.9 12.2 11.2 19.4-2.9 3.7-10.5 7.3-19 9.1-9.9 2.1-10 2.1-9.3-1.7zm-11.9-3.9C40.5 24.3 36.3 11 39 6.1 41.8.7 51-1.6 57 1.5c7.3 3.8 7.9 10.5 2 22.1-2.2 4.4-5.1 9.2-6.4 10.8l-2.3 2.8-2.6-3.3z" />
    <style>
        path { fill: #000; }
        @media(prefers-color-scheme: dark) {
        path { fill: #fff; }
        }
    </style>
</svg>